<svg xmlns="http://www.w3.org/2000/svg" viewBox="0 0 454 476" width="454" height="476" role="img" aria-label="AuthWearSignInPromptScreen layout wireframe">
  <title>AuthWearSignInPromptScreen — layout wireframe (slots + tokens)</title>
  <rect width="454" height="476" fill="#ffffff"/>
  <g>
    <rect x="0" y="0" width="454" height="454" fill="none" fill-opacity="0" stroke="#5B6470" stroke-width="1" stroke-opacity="0.5"/>
  </g>
  <g>
    <rect x="0" y="0" width="454" height="454" fill="none" fill-opacity="0" stroke="#2E7D6B" stroke-width="1" stroke-opacity="0.5"/>
  </g>
  <g>
    <rect x="0" y="0" width="454" height="454" fill="none" fill-opacity="0" stroke="#8E6BA8" stroke-width="1" stroke-opacity="0.5"/>
  </g>
  <g>
    <rect x="0" y="0" width="454" height="454" fill="none" fill-opacity="0" stroke="#B0813B" stroke-width="1" stroke-opacity="0.5"/>
  </g>
  <g>
    <rect x="0" y="0" width="454" height="454" fill="none" fill-opacity="0" stroke="#3B72A8" stroke-width="1" stroke-opacity="0.5"/>
  </g>
  <g>
    <rect x="0" y="0" width="454" height="454" fill="none" fill-opacity="0" stroke="#A85B6B" stroke-width="1" stroke-opacity="0.5"/>
  </g>
  <g>
    <rect x="0" y="0" width="454" height="454" fill="none" fill-opacity="0" stroke="#4F8A4A" stroke-width="1" stroke-opacity="0.5"/>
  </g>
  <g>
    <rect x="0" y="-22" width="454" height="498" fill="none" fill-opacity="0" stroke="#7A7A33" stroke-width="1" stroke-opacity="0.5"/>
  </g>
  <g>
    <rect x="115" y="46" width="224" height="42" fill="none" fill-opacity="0" stroke="#5B6470" stroke-width="1" stroke-opacity="0.5"/>
  </g>
  <g>
    <rect x="171" y="46" width="112" height="42" fill="none" fill-opacity="0" stroke="#2E7D6B" stroke-width="1" stroke-opacity="0.5"/>
  </g>
  <g>
    <rect x="171" y="46" width="112" height="42" fill="none" fill-opacity="0" stroke="#8E6BA8" stroke-width="1" stroke-opacity="0.5"/>
  </g>
  <g>
    <rect x="24" y="96" width="406" height="105" fill="none" fill-opacity="0" stroke="#5B6470" stroke-width="1" stroke-opacity="0.5"/>
  </g>
  <g>
    <rect x="44" y="96" width="366" height="105" fill="none" fill-opacity="0" stroke="#2E7D6B" stroke-width="1" stroke-opacity="0.5"/>
  </g>
  <g>
    <rect x="44" y="104" width="366" height="97" fill="none" fill-opacity="0" stroke="#8E6BA8" stroke-width="1" stroke-opacity="0.5"/>
  </g>
  <g>
    <rect x="119" y="233" width="217" height="104" fill="none" fill-opacity="0" stroke="#5B6470" stroke-width="1" stroke-opacity="0.5"/>
  </g>
  <g>
    <path d="M187,245 H268 A40,40 0 0 1 308,285 V285 A40,40 0 0 1 268,325 H187 A40,40 0 0 1 147,285 V285 A40,40 0 0 1 187,245 Z" fill="#303133" fill-opacity="1" stroke="#2E7D6B" stroke-width="1.5" stroke-opacity="1"/>
    <text x="150" y="257" font-family="system-ui, sans-serif" font-size="9" fill="#2E7D6B">#FF303133</text>
  </g>
  <g>
    <rect x="147" y="259" width="52" height="52" fill="none" fill-opacity="0" stroke="#8E6BA8" stroke-width="1" stroke-opacity="0.5"/>
  </g>
  <g>
    <rect x="147" y="259" width="52" height="52" fill="none" fill-opacity="0" stroke="#B0813B" stroke-width="1" stroke-opacity="0.5"/>
  </g>
  <g>
    <rect x="199" y="279" width="12" height="12" fill="none" fill-opacity="0" stroke="#8E6BA8" stroke-width="1" stroke-opacity="0.5"/>
  </g>
  <g>
    <rect x="211" y="267" width="97" height="36" fill="none" fill-opacity="0" stroke="#8E6BA8" stroke-width="1" stroke-opacity="0.5"/>
  </g>
  <g>
    <rect x="211" y="267" width="97" height="36" fill="none" fill-opacity="0" stroke="#B0813B" stroke-width="1" stroke-opacity="0.5"/>
  </g>
  <g>
    <rect x="211" y="267" width="97" height="36" fill="none" fill-opacity="0" stroke="#3B72A8" stroke-width="1" stroke-opacity="0.5"/>
  </g>
  <g>
    <rect x="55" y="345" width="344" height="104" fill="none" fill-opacity="0" stroke="#5B6470" stroke-width="1" stroke-opacity="0.5"/>
  </g>
  <g>
    <path d="M123,357 H331 A40,40 0 0 1 371,397 V397 A40,40 0 0 1 331,437 H123 A40,40 0 0 1 83,397 V397 A40,40 0 0 1 123,357 Z" fill="#303133" fill-opacity="1" stroke="#2E7D6B" stroke-width="1.5" stroke-opacity="1"/>
    <text x="86" y="369" font-family="system-ui, sans-serif" font-size="9" fill="#2E7D6B">#FF303133</text>
  </g>
  <g>
    <rect x="83" y="379" width="288" height="36" fill="none" fill-opacity="0" stroke="#8E6BA8" stroke-width="1" stroke-opacity="0.5"/>
  </g>
  <g>
    <rect x="83" y="379" width="288" height="36" fill="none" fill-opacity="0" stroke="#B0813B" stroke-width="1" stroke-opacity="0.5"/>
  </g>
  <g>
    <rect x="83" y="379" width="288" height="36" fill="none" fill-opacity="0" stroke="#3B72A8" stroke-width="1" stroke-opacity="0.5"/>
  </g>
  <g>
    <rect x="432" y="171" width="22" height="112" fill="none" fill-opacity="0" stroke="#A85B6B" stroke-width="1" stroke-opacity="0.5"/>
  </g>
  <g>
    <rect x="432" y="171" width="22" height="112" fill="none" fill-opacity="0" stroke="#4F8A4A" stroke-width="1" stroke-opacity="0.5"/>
  </g>
</svg>
